<?xml version="1.0" standalone="no"?>
<!DOCTYPE svg PUBLIC "-//W3C//DTD SVG 20010904//EN"
 "http://www.w3.org/TR/2001/REC-SVG-20010904/DTD/svg10.dtd">
<svg version="1.0" xmlns="http://www.w3.org/2000/svg"
 width="170px" height="75px" viewBox="0 0 1024.000000 514.000000"
 preserveAspectRatio="xMidYMid meet">

<g transform="translate(0.000000,514.000000) scale(0.100000,-0.100000)"
fill="#000000" stroke="none">
<path d="M2760 3104 c-57 -11 -159 -48 -220 -80 -179 -94 -315 -260 -377 -459
-14 -47 -18 -93 -18 -210 0 -132 3 -158 24 -220 34 -99 69 -167 83 -159 7 5 8
3 4 -5 -10 -15 29 -72 91 -133 l48 -47 -3 95 c-2 52 1 115 6 138 6 31 5 63 -4
107 -8 35 -14 102 -14 149 0 170 50 309 148 412 65 69 123 108 217 145 l70 28
335 -2 335 -2 -54 50 c-70 66 -187 133 -286 166 -68 22 -100 27 -220 29 -77 1
-151 0 -165 -2z m641 -191 c13 -17 13 -17 -6 -3 -11 8 -22 16 -24 17 -2 2 0 3
6 3 6 0 17 -8 24 -17z m-756 -103 c-3 -5 -12 -10 -18 -10 -7 0 -6 4 3 10 19
12 23 12 15 0z m-331 -896 c3 -8 2 -12 -4 -9 -6 3 -10 10 -10 16 0 14 7 11 14
-7z"/>
<path d="M4693 2743 c-50 -10 -81 -94 -50 -134 36 -47 97 -51 138 -10 48 48
36 111 -26 137 -19 8 -36 13 -37 13 -2 -1 -13 -4 -25 -6z"/>
<path d="M4060 2335 l0 -405 75 0 75 0 0 160 0 160 155 0 155 0 0 70 0 70
-155 0 -155 0 0 105 0 105 170 0 170 0 0 70 0 70 -245 0 -245 0 0 -405z"/>
<path d="M5313 2728 c2 -7 46 -130 96 -273 51 -143 114 -318 139 -390 l48
-130 94 0 95 0 73 200 c41 110 106 290 146 400 l72 200 -74 3 c-41 2 -76 1
-79 -1 -2 -3 -55 -153 -118 -333 -63 -181 -114 -326 -114 -323 -1 7 -176 526
-203 602 l-21 57 -79 0 c-60 0 -79 -3 -75 -12z"/>
<path d="M3560 2718 c-19 -5 -129 -37 -245 -70 -115 -33 -241 -68 -278 -79
-241 -69 -431 -244 -518 -477 -29 -78 -32 -99 -33 -197 -1 -153 12 -183 104
-224 431 -192 908 42 1036 510 12 44 18 102 18 189 1 109 -3 137 -28 223 -27
94 -28 99 -11 117 21 23 12 24 -45 8z m-273 -104 c-3 -3 -12 -4 -19 -1 -8 3
-5 6 6 6 11 1 17 -2 13 -5z m95 -221 c-22 -321 -243 -553 -527 -553 -65 0
-157 20 -205 45 l-29 15 19 55 c63 183 197 329 360 393 30 12 118 38 195 58
77 20 142 38 144 40 2 2 14 4 26 4 20 0 21 -4 17 -57z m-492 -77 c0 -2 -8 -10
-17 -17 -16 -13 -17 -12 -4 4 13 16 21 21 21 13z m737 -48 c-3 -8 -6 -5 -6 6
-1 11 2 17 5 13 3 -3 4 -12 1 -19z m-296 -161 c-10 -9 -11 -8 -5 6 3 10 9 15
12 12 3 -3 0 -11 -7 -18z m212 -92 c-3 -9 -8 -14 -10 -11 -3 3 -2 9 2 15 9 16
15 13 8 -4z m-333 -59 c0 -2 -8 -10 -17 -17 -16 -13 -17 -12 -4 4 13 16 21 21
21 13z m190 -130 c0 -2 -8 -10 -17 -17 -16 -13 -17 -12 -4 4 13 16 21 21 21
13z"/>
<path d="M4980 2585 l0 -75 -55 0 -55 0 0 -60 0 -60 55 0 55 0 0 -168 c0 -154
2 -171 23 -212 12 -24 34 -52 48 -62 30 -22 118 -33 183 -24 l46 7 0 58 0 57
-59 -4 c-87 -6 -91 3 -91 195 l0 153 75 0 75 0 0 60 0 60 -75 0 -75 0 0 75 0
75 -75 0 -75 0 0 -75z"/>
<path d="M6243 2516 c-125 -31 -194 -134 -196 -291 -2 -196 99 -305 282 -305
107 0 197 55 246 150 l16 30 -71 0 c-65 0 -72 -2 -98 -30 -36 -40 -102 -50
-156 -25 -39 18 -59 48 -71 103 l-7 32 208 0 207 0 -7 66 c-13 128 -70 222
-156 258 -53 21 -138 27 -197 12z m152 -128 c25 -20 55 -73 55 -98 0 -6 -48
-10 -131 -10 -126 0 -130 1 -125 20 3 11 8 29 12 40 3 10 19 31 35 45 40 33
113 35 154 3z"/>
<path d="M6930 2516 c-20 -7 -49 -31 -67 -54 l-32 -42 -7 45 -6 45 -64 0 -64
0 0 -290 0 -290 70 0 70 0 0 168 c0 139 3 173 18 201 25 50 63 74 127 79 l55
4 0 68 c0 84 -17 96 -100 66z"/>
<path d="M7236 2519 c-93 -23 -147 -84 -147 -166 -1 -105 47 -151 190 -184 53
-12 104 -28 114 -37 24 -22 22 -67 -5 -86 -49 -34 -169 -10 -184 36 -4 15 -17
18 -75 18 -76 0 -82 -6 -55 -59 45 -85 140 -127 272 -119 129 9 204 76 204
183 0 95 -50 143 -180 171 -41 9 -90 22 -107 30 -61 26 -51 94 17 109 44 10
105 -11 118 -40 11 -23 17 -25 78 -25 l67 0 -7 32 c-9 46 -53 98 -101 119 -52
23 -146 32 -199 18z"/>
<path d="M7808 2517 c-132 -37 -211 -177 -193 -341 13 -123 86 -219 188 -247
68 -18 177 -7 230 24 47 28 88 70 113 118 l15 29 -70 0 c-63 0 -72 -3 -99 -29
-37 -38 -92 -49 -146 -30 -47 17 -74 51 -83 102 l-6 37 207 0 207 0 -6 53
c-17 136 -64 223 -145 263 -58 29 -150 38 -212 21z m162 -134 c20 -18 33 -41
37 -65 l6 -38 -127 0 c-75 0 -126 4 -126 10 0 28 34 88 58 103 15 9 48 17 74
17 38 0 54 -6 78 -27z"/>
<path d="M4650 2220 l0 -290 73 0 72 0 0 290 0 290 -72 0 -73 0 0 -290z"/>
<path d="M0 10 c0 -7 1713 -10 5120 -10 3407 0 5120 3 5120 10 0 7 -1713 10
-5120 10 -3407 0 -5120 -3 -5120 -10z"/>
</g>
</svg>
